<mxfile host="65bd71144e">
    <diagram id="OK63rKeQ1v4ByB522FCv" name="Страница — 1">
        <mxGraphModel dx="1018" dy="1162" grid="1" gridSize="10" guides="1" tooltips="1" connect="1" arrows="1" fold="1" page="1" pageScale="1" pageWidth="850" pageHeight="1100" math="0" shadow="0">
            <root>
                <mxCell id="a_0"/>
                <mxCell id="a_1" parent="a_0"/>
                <mxCell id="1" value="(C)  Hyundai" style="swimlane;childLayout=stackLayout;separatorColor=none;noLabel=0;verticalAlign=top;resizeParent=1;shadow=0;fillOpacity=100;resizeLast=0;align=center;collapsible=0;fillColor=white;horizontal=1;startSize=30;rounded=1;marginBottom=0;html=1;fillStyle=auto;resizeParentMax=0;horizontalStack=0;strokeColor=black;strokeOpacity=100" parent="a_1" vertex="1">
                    <mxGeometry x="100" y="100" width="190" height="198" as="geometry"/>
                </mxCell>
                <mxCell id="2" value="- gasonlineCars: ArrayList" style="text;fillColor=none;verticalAlign=middle;rotatable=0;overflow=hidden;portConstraint=eastwest;spacingLeft=4;html=1;strokeColor=none;align=left;spacingRight=4;points=[[0,0.5],[1,0.5]]" parent="1" vertex="1">
                    <mxGeometry y="30" width="190" height="20" as="geometry"/>
                </mxCell>
                <mxCell id="3" value="- hydrogenCars: ArrayList" style="text;fillColor=none;verticalAlign=middle;rotatable=0;overflow=hidden;portConstraint=eastwest;spacingLeft=4;html=1;strokeColor=none;align=left;spacingRight=4;points=[[0,0.5],[1,0.5]]" parent="1" vertex="1">
                    <mxGeometry y="50" width="190" height="20" as="geometry"/>
                </mxCell>
                <mxCell id="4" value="- location: String" style="text;fillColor=none;verticalAlign=middle;rotatable=0;overflow=hidden;portConstraint=eastwest;spacingLeft=4;html=1;strokeColor=none;align=left;spacingRight=4;points=[[0,0.5],[1,0.5]]" parent="1" vertex="1">
                    <mxGeometry y="70" width="190" height="20" as="geometry"/>
                </mxCell>
                <mxCell id="5" value="- stock: float" style="text;fillColor=none;verticalAlign=middle;rotatable=0;overflow=hidden;portConstraint=eastwest;spacingLeft=4;html=1;strokeColor=none;align=left;spacingRight=4;points=[[0,0.5],[1,0.5]]" parent="1" vertex="1">
                    <mxGeometry y="90" width="190" height="20" as="geometry"/>
                </mxCell>
                <mxCell id="6" style="line;strokeWidth=1;fillColor=none;verticalAlign=middle;rotatable=0;portConstraint=eastwest;labelPosition=right;spacingTop=-1;spacingLeft=3;align=left;strokeColor=black;spacingRight=3;points=[]" parent="1" vertex="1">
                    <mxGeometry y="110" width="190" height="8" as="geometry"/>
                </mxCell>
                <mxCell id="7" value="+ addGasonlineCar(ElectricCar): void" style="text;fillColor=none;verticalAlign=middle;rotatable=0;overflow=hidden;portConstraint=eastwest;spacingLeft=4;html=1;strokeColor=none;align=left;spacingRight=4;points=[[0,0.5],[1,0.5]]" parent="1" vertex="1">
                    <mxGeometry y="118" width="190" height="20" as="geometry"/>
                </mxCell>
                <mxCell id="8" value="+ dropGasonlineCar(): GasonlineCar" style="text;fillColor=none;verticalAlign=middle;rotatable=0;overflow=hidden;portConstraint=eastwest;spacingLeft=4;html=1;strokeColor=none;align=left;spacingRight=4;points=[[0,0.5],[1,0.5]]" parent="1" vertex="1">
                    <mxGeometry y="138" width="190" height="20" as="geometry"/>
                </mxCell>
                <mxCell id="9" value="+ addHydrongenCar(): void" style="text;fillColor=none;verticalAlign=middle;rotatable=0;overflow=hidden;portConstraint=eastwest;spacingLeft=4;html=1;strokeColor=none;align=left;spacingRight=4;points=[[0,0.5],[1,0.5]]" parent="1" vertex="1">
                    <mxGeometry y="158" width="190" height="20" as="geometry"/>
                </mxCell>
                <mxCell id="10" value="+ dropHydrongenCar(): HydrogenCar" style="text;fillColor=none;verticalAlign=middle;rotatable=0;overflow=hidden;portConstraint=eastwest;spacingLeft=4;html=1;strokeColor=none;align=left;spacingRight=4;points=[[0,0.5],[1,0.5]]" parent="1" vertex="1">
                    <mxGeometry y="178" width="190" height="20" as="geometry"/>
                </mxCell>
                <mxCell id="11" value="(A)  HydrogenCar" style="swimlane;childLayout=stackLayout;separatorColor=none;noLabel=0;verticalAlign=top;resizeParent=1;shadow=0;fillOpacity=100;resizeLast=0;align=center;collapsible=0;fillColor=#dae8fc;horizontal=1;startSize=30;rounded=1;marginBottom=0;html=1;fillStyle=auto;resizeParentMax=0;horizontalStack=0;strokeColor=#6c8ebf;strokeOpacity=100" parent="a_1" vertex="1">
                    <mxGeometry x="340" y="348" width="215" height="78" as="geometry"/>
                </mxCell>
                <mxCell id="12" value="- volume: int" style="text;fillColor=none;verticalAlign=middle;rotatable=0;overflow=hidden;portConstraint=eastwest;spacingLeft=4;html=1;strokeColor=none;align=left;spacingRight=4;points=[[0,0.5],[1,0.5]]" parent="11" vertex="1">
                    <mxGeometry y="30" width="215" height="20" as="geometry"/>
                </mxCell>
                <mxCell id="13" style="line;strokeWidth=1;fillColor=none;verticalAlign=middle;rotatable=0;portConstraint=eastwest;labelPosition=right;spacingTop=-1;spacingLeft=3;align=left;strokeColor=#6c8ebf;spacingRight=3;points=[]" parent="11" vertex="1">
                    <mxGeometry y="50" width="215" height="8" as="geometry"/>
                </mxCell>
                <mxCell id="14" value="+ filling(int,String,String,String): void" style="text;fillColor=none;verticalAlign=middle;rotatable=0;overflow=hidden;portConstraint=eastwest;spacingLeft=4;html=1;strokeColor=none;align=left;spacingRight=4;points=[[0,0.5],[1,0.5]]" parent="11" vertex="1">
                    <mxGeometry y="58" width="215" height="20" as="geometry"/>
                </mxCell>
                <mxCell id="15" value="(I)  Movable" style="swimlane;childLayout=stackLayout;separatorColor=none;noLabel=0;verticalAlign=top;resizeParent=1;shadow=0;fillOpacity=100;resizeLast=0;align=center;collapsible=0;fillColor=#d5e8d4;horizontal=1;startSize=30;rounded=1;marginBottom=0;html=1;fillStyle=auto;resizeParentMax=0;horizontalStack=0;strokeColor=#82b366;strokeOpacity=100" parent="a_1" vertex="1">
                    <mxGeometry x="605" y="476" width="70" height="38" as="geometry"/>
                </mxCell>
                <mxCell id="16" style="line;strokeWidth=1;fillColor=none;verticalAlign=middle;rotatable=0;portConstraint=eastwest;labelPosition=right;spacingTop=-1;spacingLeft=3;align=left;strokeColor=#82b366;spacingRight=3;points=[]" parent="15" vertex="1">
                    <mxGeometry y="30" width="70" height="8" as="geometry"/>
                </mxCell>
                <mxCell id="17" value="(I)  Flexible" style="swimlane;childLayout=stackLayout;separatorColor=none;noLabel=0;verticalAlign=top;resizeParent=1;shadow=0;fillOpacity=100;resizeLast=0;align=center;collapsible=0;fillColor=#d5e8d4;horizontal=1;startSize=30;rounded=1;marginBottom=0;html=1;fillStyle=auto;resizeParentMax=0;horizontalStack=0;strokeColor=#82b366;strokeOpacity=100" parent="a_1" vertex="1">
                    <mxGeometry x="725" y="564" width="75" height="38" as="geometry"/>
                </mxCell>
                <mxCell id="18" style="line;strokeWidth=1;fillColor=none;verticalAlign=middle;rotatable=0;portConstraint=eastwest;labelPosition=right;spacingTop=-1;spacingLeft=3;align=left;strokeColor=#82b366;spacingRight=3;points=[]" parent="17" vertex="1">
                    <mxGeometry y="30" width="75" height="8" as="geometry"/>
                </mxCell>
                <mxCell id="19" value="(A)  ElectricCar" style="swimlane;childLayout=stackLayout;separatorColor=none;noLabel=0;verticalAlign=top;resizeParent=1;shadow=0;fillOpacity=100;resizeLast=0;align=center;collapsible=0;fillColor=#dae8fc;horizontal=1;startSize=30;rounded=1;marginBottom=0;html=1;fillStyle=auto;resizeParentMax=0;horizontalStack=0;strokeColor=#6c8ebf;strokeOpacity=100" parent="a_1" vertex="1">
                    <mxGeometry x="850" y="652" width="115" height="78" as="geometry"/>
                </mxCell>
                <mxCell id="20" value="- battery: int" style="text;fillColor=none;verticalAlign=middle;rotatable=0;overflow=hidden;portConstraint=eastwest;spacingLeft=4;html=1;strokeColor=none;align=left;spacingRight=4;points=[[0,0.5],[1,0.5]]" parent="19" vertex="1">
                    <mxGeometry y="30" width="115" height="20" as="geometry"/>
                </mxCell>
                <mxCell id="21" style="line;strokeWidth=1;fillColor=none;verticalAlign=middle;rotatable=0;portConstraint=eastwest;labelPosition=right;spacingTop=-1;spacingLeft=3;align=left;strokeColor=#6c8ebf;spacingRight=3;points=[]" parent="19" vertex="1">
                    <mxGeometry y="50" width="115" height="8" as="geometry"/>
                </mxCell>
                <mxCell id="22" value="+ charging(int): void" style="text;fillColor=none;verticalAlign=middle;rotatable=0;overflow=hidden;portConstraint=eastwest;spacingLeft=4;html=1;strokeColor=none;align=left;spacingRight=4;points=[[0,0.5],[1,0.5]]" parent="19" vertex="1">
                    <mxGeometry y="58" width="115" height="20" as="geometry"/>
                </mxCell>
                <mxCell id="23" value="(A)  Car" style="swimlane;childLayout=stackLayout;separatorColor=none;noLabel=0;verticalAlign=top;resizeParent=1;shadow=0;fillOpacity=100;resizeLast=0;align=center;collapsible=0;fillColor=#dae8fc;horizontal=1;startSize=30;rounded=1;marginBottom=0;html=1;fillStyle=auto;resizeParentMax=0;horizontalStack=0;strokeColor=#6c8ebf;strokeOpacity=100" parent="a_1" vertex="1">
                    <mxGeometry x="1015" y="780" width="145" height="358" as="geometry"/>
                </mxCell>
                <mxCell id="24" value="- weight: int" style="text;fillColor=none;verticalAlign=middle;rotatable=0;overflow=hidden;portConstraint=eastwest;spacingLeft=4;html=1;strokeColor=none;align=left;spacingRight=4;points=[[0,0.5],[1,0.5]]" parent="23" vertex="1">
                    <mxGeometry y="30" width="145" height="20" as="geometry"/>
                </mxCell>
                <mxCell id="25" value="- speed: int" style="text;fillColor=none;verticalAlign=middle;rotatable=0;overflow=hidden;portConstraint=eastwest;spacingLeft=4;html=1;strokeColor=none;align=left;spacingRight=4;points=[[0,0.5],[1,0.5]]" parent="23" vertex="1">
                    <mxGeometry y="50" width="145" height="20" as="geometry"/>
                </mxCell>
                <mxCell id="26" value="- engineOn: boolean" style="text;fillColor=none;verticalAlign=middle;rotatable=0;overflow=hidden;portConstraint=eastwest;spacingLeft=4;html=1;strokeColor=none;align=left;spacingRight=4;points=[[0,0.5],[1,0.5]]" parent="23" vertex="1">
                    <mxGeometry y="70" width="145" height="20" as="geometry"/>
                </mxCell>
                <mxCell id="27" value="- sideMirrorOn: boolean" style="text;fillColor=none;verticalAlign=middle;rotatable=0;overflow=hidden;portConstraint=eastwest;spacingLeft=4;html=1;strokeColor=none;align=left;spacingRight=4;points=[[0,0.5],[1,0.5]]" parent="23" vertex="1">
                    <mxGeometry y="90" width="145" height="20" as="geometry"/>
                </mxCell>
                <mxCell id="28" value="- lightOn: boolean" style="text;fillColor=none;verticalAlign=middle;rotatable=0;overflow=hidden;portConstraint=eastwest;spacingLeft=4;html=1;strokeColor=none;align=left;spacingRight=4;points=[[0,0.5],[1,0.5]]" parent="23" vertex="1">
                    <mxGeometry y="110" width="145" height="20" as="geometry"/>
                </mxCell>
                <mxCell id="29" value="+ DIRECTION: int" style="text;fillColor=none;verticalAlign=middle;rotatable=0;overflow=hidden;portConstraint=eastwest;spacingLeft=4;html=1;strokeColor=none;align=left;spacingRight=4;points=[[0,0.5],[1,0.5]]" parent="23" vertex="1">
                    <mxGeometry y="130" width="145" height="20" as="geometry"/>
                </mxCell>
                <mxCell id="30" style="line;strokeWidth=1;fillColor=none;verticalAlign=middle;rotatable=0;portConstraint=eastwest;labelPosition=right;spacingTop=-1;spacingLeft=3;align=left;strokeColor=#6c8ebf;spacingRight=3;points=[]" parent="23" vertex="1">
                    <mxGeometry y="150" width="145" height="8" as="geometry"/>
                </mxCell>
                <mxCell id="31" value="+ startEngine(): void" style="text;fillColor=none;verticalAlign=middle;rotatable=0;overflow=hidden;portConstraint=eastwest;spacingLeft=4;html=1;strokeColor=none;align=left;spacingRight=4;points=[[0,0.5],[1,0.5]]" parent="23" vertex="1">
                    <mxGeometry y="158" width="145" height="20" as="geometry"/>
                </mxCell>
                <mxCell id="32" value="+ stopEngine(): void" style="text;fillColor=none;verticalAlign=middle;rotatable=0;overflow=hidden;portConstraint=eastwest;spacingLeft=4;html=1;strokeColor=none;align=left;spacingRight=4;points=[[0,0.5],[1,0.5]]" parent="23" vertex="1">
                    <mxGeometry y="178" width="145" height="20" as="geometry"/>
                </mxCell>
                <mxCell id="33" value="+ sideMirrorTurnOn(): void" style="text;fillColor=none;verticalAlign=middle;rotatable=0;overflow=hidden;portConstraint=eastwest;spacingLeft=4;html=1;strokeColor=none;align=left;spacingRight=4;points=[[0,0.5],[1,0.5]]" parent="23" vertex="1">
                    <mxGeometry y="198" width="145" height="20" as="geometry"/>
                </mxCell>
                <mxCell id="34" value="+ sideMirrorTurnOff(): void" style="text;fillColor=none;verticalAlign=middle;rotatable=0;overflow=hidden;portConstraint=eastwest;spacingLeft=4;html=1;strokeColor=none;align=left;spacingRight=4;points=[[0,0.5],[1,0.5]]" parent="23" vertex="1">
                    <mxGeometry y="218" width="145" height="20" as="geometry"/>
                </mxCell>
                <mxCell id="35" value="+ currentSpeed(): int" style="text;fillColor=none;verticalAlign=middle;rotatable=0;overflow=hidden;portConstraint=eastwest;spacingLeft=4;html=1;strokeColor=none;align=left;spacingRight=4;points=[[0,0.5],[1,0.5]]" parent="23" vertex="1">
                    <mxGeometry y="238" width="145" height="20" as="geometry"/>
                </mxCell>
                <mxCell id="36" value="+ accelerate(): void" style="text;fillColor=none;verticalAlign=middle;rotatable=0;overflow=hidden;portConstraint=eastwest;spacingLeft=4;html=1;strokeColor=none;align=left;spacingRight=4;points=[[0,0.5],[1,0.5]]" parent="23" vertex="1">
                    <mxGeometry y="258" width="145" height="20" as="geometry"/>
                </mxCell>
                <mxCell id="37" value="+ brake(): void" style="text;fillColor=none;verticalAlign=middle;rotatable=0;overflow=hidden;portConstraint=eastwest;spacingLeft=4;html=1;strokeColor=none;align=left;spacingRight=4;points=[[0,0.5],[1,0.5]]" parent="23" vertex="1">
                    <mxGeometry y="278" width="145" height="20" as="geometry"/>
                </mxCell>
                <mxCell id="38" value="+ turnRight(): void" style="text;fillColor=none;verticalAlign=middle;rotatable=0;overflow=hidden;portConstraint=eastwest;spacingLeft=4;html=1;strokeColor=none;align=left;spacingRight=4;points=[[0,0.5],[1,0.5]]" parent="23" vertex="1">
                    <mxGeometry y="298" width="145" height="20" as="geometry"/>
                </mxCell>
                <mxCell id="39" value="+ turnLeft(): void" style="text;fillColor=none;verticalAlign=middle;rotatable=0;overflow=hidden;portConstraint=eastwest;spacingLeft=4;html=1;strokeColor=none;align=left;spacingRight=4;points=[[0,0.5],[1,0.5]]" parent="23" vertex="1">
                    <mxGeometry y="318" width="145" height="20" as="geometry"/>
                </mxCell>
                <mxCell id="40" value="+ move(): void" style="text;fillColor=none;verticalAlign=middle;rotatable=0;overflow=hidden;portConstraint=eastwest;spacingLeft=4;html=1;strokeColor=none;align=left;spacingRight=4;points=[[0,0.5],[1,0.5]]" parent="23" vertex="1">
                    <mxGeometry y="338" width="145" height="20" as="geometry"/>
                </mxCell>
                <mxCell id="41" value="(C)  Teslr" style="swimlane;childLayout=stackLayout;separatorColor=none;noLabel=0;verticalAlign=top;resizeParent=1;shadow=0;fillOpacity=100;resizeLast=0;align=center;collapsible=0;fillColor=white;horizontal=1;startSize=30;rounded=1;marginBottom=0;html=1;fillStyle=auto;resizeParentMax=0;horizontalStack=0;strokeColor=black;strokeOpacity=100" parent="a_1" vertex="1">
                    <mxGeometry x="1210" y="1188" width="145" height="138" as="geometry"/>
                </mxCell>
                <mxCell id="42" value="- electricCars: ArrayList" style="text;fillColor=none;verticalAlign=middle;rotatable=0;overflow=hidden;portConstraint=eastwest;spacingLeft=4;html=1;strokeColor=none;align=left;spacingRight=4;points=[[0,0.5],[1,0.5]]" parent="41" vertex="1">
                    <mxGeometry y="30" width="145" height="20" as="geometry"/>
                </mxCell>
                <mxCell id="43" value="- location: String" style="text;fillColor=none;verticalAlign=middle;rotatable=0;overflow=hidden;portConstraint=eastwest;spacingLeft=4;html=1;strokeColor=none;align=left;spacingRight=4;points=[[0,0.5],[1,0.5]]" parent="41" vertex="1">
                    <mxGeometry y="50" width="145" height="20" as="geometry"/>
                </mxCell>
                <mxCell id="44" value="- stock: float" style="text;fillColor=none;verticalAlign=middle;rotatable=0;overflow=hidden;portConstraint=eastwest;spacingLeft=4;html=1;strokeColor=none;align=left;spacingRight=4;points=[[0,0.5],[1,0.5]]" parent="41" vertex="1">
                    <mxGeometry y="70" width="145" height="20" as="geometry"/>
                </mxCell>
                <mxCell id="45" style="line;strokeWidth=1;fillColor=none;verticalAlign=middle;rotatable=0;portConstraint=eastwest;labelPosition=right;spacingTop=-1;spacingLeft=3;align=left;strokeColor=black;spacingRight=3;points=[]" parent="41" vertex="1">
                    <mxGeometry y="90" width="145" height="8" as="geometry"/>
                </mxCell>
                <mxCell id="46" value="+ addCar(ElectricCar): void" style="text;fillColor=none;verticalAlign=middle;rotatable=0;overflow=hidden;portConstraint=eastwest;spacingLeft=4;html=1;strokeColor=none;align=left;spacingRight=4;points=[[0,0.5],[1,0.5]]" parent="41" vertex="1">
                    <mxGeometry y="98" width="145" height="20" as="geometry"/>
                </mxCell>
                <mxCell id="47" value="+ dropCar(): ElectricCar" style="text;fillColor=none;verticalAlign=middle;rotatable=0;overflow=hidden;portConstraint=eastwest;spacingLeft=4;html=1;strokeColor=none;align=left;spacingRight=4;points=[[0,0.5],[1,0.5]]" parent="41" vertex="1">
                    <mxGeometry y="118" width="145" height="20" as="geometry"/>
                </mxCell>
                <mxCell id="48" value="(A)  GasonlineCar" style="swimlane;childLayout=stackLayout;separatorColor=none;noLabel=0;verticalAlign=top;resizeParent=1;shadow=0;fillOpacity=100;resizeLast=0;align=center;collapsible=0;fillColor=#dae8fc;horizontal=1;startSize=30;rounded=1;marginBottom=0;html=1;fillStyle=auto;resizeParentMax=0;horizontalStack=0;strokeColor=#6c8ebf;strokeOpacity=100" parent="a_1" vertex="1">
                    <mxGeometry x="2030" y="2040" width="185" height="78" as="geometry"/>
                </mxCell>
                <mxCell id="49" value="- volume: int" style="text;fillColor=none;verticalAlign=middle;rotatable=0;overflow=hidden;portConstraint=eastwest;spacingLeft=4;html=1;strokeColor=none;align=left;spacingRight=4;points=[[0,0.5],[1,0.5]]" parent="48" vertex="1">
                    <mxGeometry y="30" width="185" height="20" as="geometry"/>
                </mxCell>
                <mxCell id="50" style="line;strokeWidth=1;fillColor=none;verticalAlign=middle;rotatable=0;portConstraint=eastwest;labelPosition=right;spacingTop=-1;spacingLeft=3;align=left;strokeColor=#6c8ebf;spacingRight=3;points=[]" parent="48" vertex="1">
                    <mxGeometry y="50" width="185" height="8" as="geometry"/>
                </mxCell>
                <mxCell id="51" value="+ injectGasonline(int,String): void" style="text;fillColor=none;verticalAlign=middle;rotatable=0;overflow=hidden;portConstraint=eastwest;spacingLeft=4;html=1;strokeColor=none;align=left;spacingRight=4;points=[[0,0.5],[1,0.5]]" parent="48" vertex="1">
                    <mxGeometry y="58" width="185" height="20" as="geometry"/>
                </mxCell>
                <mxCell id="52" value="" style="endArrow=block;edgeStyle=orthogonalEdgeStyle;elbow=vertical;" parent="a_1" source="11" target="23" edge="1">
                    <mxGeometry width="160" relative="1" as="geometry"/>
                </mxCell>
                <mxCell id="53" value="" style="endArrow=block;edgeStyle=orthogonalEdgeStyle" parent="a_1" source="23" target="15" edge="1">
                    <mxGeometry width="160" relative="1" as="geometry"/>
                </mxCell>
                <mxCell id="54" value="" style="endArrow=block;edgeStyle=orthogonalEdgeStyle" parent="a_1" source="23" target="17" edge="1">
                    <mxGeometry width="160" relative="1" as="geometry"/>
                </mxCell>
                <mxCell id="55" value="" style="endArrow=block;edgeStyle=orthogonalEdgeStyle;jumpStyle=sharp;" parent="a_1" source="1" target="11" edge="1">
                    <mxGeometry width="160" relative="1" as="geometry"/>
                </mxCell>
                <mxCell id="56" value="" style="endArrow=block;edgeStyle=orthogonalEdgeStyle" parent="a_1" source="48" target="23" edge="1">
                    <mxGeometry width="160" relative="1" as="geometry"/>
                </mxCell>
                <mxCell id="57" value="" style="endArrow=block;edgeStyle=orthogonalEdgeStyle" parent="a_1" source="19" target="23" edge="1">
                    <mxGeometry width="160" relative="1" as="geometry"/>
                </mxCell>
                <mxCell id="58" value="" style="endArrow=block;edgeStyle=orthogonalEdgeStyle;jumpStyle=arc;" parent="a_1" source="41" target="19" edge="1">
                    <mxGeometry width="160" relative="1" as="geometry"/>
                </mxCell>
            </root>
        </mxGraphModel>
    </diagram>
</mxfile>